<svg width="77" height="90" viewBox="0 0 77 90" fill="none" xmlns="http://www.w3.org/2000/svg">
<path d="M0.131348 86.7223H76.0828" stroke="#1C7D52" stroke-width="5" stroke-linejoin="round"/>
<path d="M35.0974 44.9675C35.0974 41.9652 34.9098 38.9334 34.9098 35.9612C34.9098 33.9733 34.5022 32.0058 34.5345 29.9987C34.549 29.1055 34.7222 28.2413 34.7222 27.3406C34.7222 26.7138 34.6504 26.5954 35.3268 26.5796C36.5018 26.5523 37.6804 26.392 38.8813 26.392C39.1448 26.392 42.866 26.3284 42.9675 26.6839C43.1963 27.4847 42.9779 28.6658 42.9779 29.4775C42.9779 30.7813 43.0214 32.1427 43.2594 33.4282C43.6971 35.7917 44.479 38.3182 44.479 40.7354C44.479 42.1148 43.9161 43.3833 43.9161 44.7798" stroke="#1C7D52" stroke-width="5" stroke-linejoin="round"/>
<path d="M39.4126 2.56289C37.4962 6.09838 34.9145 9.37115 33.8879 13.3308C33.476 14.9196 32.9063 15.8698 33.9296 17.3024C34.5302 18.1432 35.3109 19.3214 36.4209 19.4601C38.1179 19.6722 39.6436 20.5495 41.1221 19.335C42.3821 18.3001 44.4786 17.0015 44.4786 15.1342C44.4786 12.5209 43.8173 10.3643 42.8942 7.92081C42.0355 5.64772 40.7142 3.67687 39.0373 2" stroke="#1C7D52" stroke-width="5" stroke-linejoin="round"/>
<path d="M38.4746 20.575C38.4746 21.6537 38.3714 22.9814 38.6726 24.0357C38.8477 24.6484 38.7453 25.432 39.0375 26.0163" stroke="#1C7D52" stroke-width="5" stroke-linejoin="round"/>
<path d="M6.95264 85.1205C6.95264 79.474 7.54564 74.1196 8.22436 68.5047C8.60673 65.3415 8.4557 62.1412 8.87064 58.9772C9.26071 56.003 9.07335 52.8545 9.01658 49.8459C9.00644 49.3084 8.55809 48.2934 8.87064 47.7819C9.31278 47.0584 11.6359 46.883 12.3418 46.8542C15.2946 46.7337 18.1026 46.374 21.0041 45.8014C22.8552 45.436 24.5643 44.8544 26.4663 44.7069C28.5327 44.5465 30.6102 44.4604 32.679 44.3212C40.1077 43.8212 47.4373 43.9815 54.8611 44.2065C57.7442 44.2939 60.4997 44.2008 63.3254 44.8736C63.7344 44.971 64.2851 44.9126 64.3782 45.2385C64.5106 45.702 67.754 45.1888 68.3497 45.6763C68.5738 45.8596 69.4126 46.1198 69.0169 46.6144C68.7716 46.921 68.8399 47.308 69.0586 47.636C69.8756 48.8616 69.491 50.1312 69.8508 51.5345C70.4947 54.0457 71.873 56.8054 71.873 59.4151C71.873 61.6848 71.1111 63.8373 70.9453 66.076C70.6558 69.9835 71.1225 73.9945 71.1225 77.9176C71.1225 79.9268 71.2112 82.1753 70.9244 84.1824C70.7896 85.1264 70.5596 86.2483 70.5596 87.1845" stroke="#1C7D52" stroke-width="5" stroke-linejoin="round"/>
<path d="M70.1843 61.6664C69.2972 64.0614 66.4074 66.1073 63.9091 66.3572C62.7886 66.4692 61.5968 66.3572 60.4692 66.3572C57.3481 66.3572 55.7203 65.0072 53.9021 62.6045C53.0902 61.5317 52.1645 60.2619 50.7749 59.9777C49.6594 59.7495 48.1372 59.5651 47.0535 59.9985C46.18 60.348 45.7838 61.282 45.271 61.9999C44.309 63.3467 43.3216 64.3492 41.9354 65.2314C40.4732 66.1619 38.7812 65.7183 37.1612 65.6171C35.6527 65.5228 34.0894 65.5161 32.9395 64.3662C31.812 63.2387 30.9876 61.4464 29.1764 61.3015C27.5973 61.1752 25.7865 62.5696 24.4961 63.3551C23.2453 64.1164 21.8294 64.2502 20.5454 64.8665C18.3346 65.9277 15.9897 66.7324 13.5092 66.7324C12.0864 66.7324 7.96892 65.6066 9.39178 65.6066" stroke="#1C7D52" stroke-width="5" stroke-linejoin="round"/>
</svg>
