<svg width="83" height="81" viewBox="0 0 83 81" fill="none" xmlns="http://www.w3.org/2000/svg">
<path d="M1.95117 40.9095C5.58473 38.2136 9.08546 35.3457 12.1875 32.0804C16.5506 27.4877 21.6046 23.6983 25.8533 18.9775C27.8926 16.7116 30.3273 14.8783 32.4412 12.6814C33.6657 11.409 35.114 10.3262 36.246 8.97052C37.5061 7.4613 38.5112 5.9306 40.1654 4.80093C40.7596 4.39514 41.4239 3.77709 42.0938 3.49794C42.3534 3.38977 42.3143 3.91485 42.417 4.0921C43.8393 6.54888 46.4392 8.86042 48.9007 10.2839C51.8755 12.0043 54.8243 13.8172 57.5734 15.892C59.6306 17.4447 61.1418 19.5944 63.1398 21.2291C64.5212 22.3593 65.4755 23.9393 66.9966 24.8983C68.3071 25.7245 69.1293 27.0133 70.3427 27.963C71.3774 28.7727 72.7761 29.682 73.522 30.767C74.4789 32.1588 75.4723 33.2906 76.6701 34.4884C78.294 36.1122 79.7329 38.1122 81.8821 39.0332" stroke="#1C7D52" stroke-width="5" stroke-linejoin="round"/>
<path d="M59.7418 16.5172C59.7418 13.9946 59.7418 11.472 59.7418 8.94944C59.7418 8.58357 59.5272 5.38793 60.8258 6.42685C61.1441 6.68147 61.6152 6.57278 62.0246 6.57278C63.6406 6.57278 65.2443 6.76041 66.8613 6.76041C67.3494 6.76041 70.8783 6.15131 71.1456 6.65617C71.3433 7.02978 71.1873 7.82369 71.1873 8.21977C71.1873 9.82158 71.1873 11.4234 71.1873 13.0252C71.1873 14.8564 71.1873 16.6875 71.1873 18.5186C71.1873 21.6067 70.812 24.7029 70.812 27.7751" stroke="#1C7D52" stroke-width="5" stroke-linejoin="round"/>
<path d="M9.64421 36.219C9.62289 38.8847 9.38192 41.5396 9.03962 44.1829C8.55384 47.9342 8.34244 51.7119 7.86172 55.4616C7.50377 58.2535 8.00036 61.0311 8.13274 63.8112C8.25714 66.4237 8.14316 69.0654 8.14316 71.6812C8.14316 72.532 8.34371 73.5988 8.70606 74.3915C8.96745 74.9633 9.05323 75.5647 9.65464 75.9029C10.8934 76.5998 12.6049 76.3558 13.9389 76.2782C15.8446 76.1674 17.9638 75.9513 19.8597 76.2782C21.6901 76.5938 23.5387 76.7473 25.3948 76.7473C29.8458 76.7473 34.2969 76.7473 38.7479 76.7473C41.0303 76.7473 43.2949 76.4778 45.586 76.5597C47.7492 76.6369 49.989 77.3407 52.1531 77.5812C55.4105 77.9431 58.7481 78.0607 62.0246 78.0607C65.0536 78.0607 68.07 77.1697 70.7911 75.8091C71.4483 75.4805 72.108 74.9075 72.8759 74.871C73.6108 74.836 74.3538 74.9285 75.0858 74.8293C75.6347 74.7549 76.0215 74.8732 75.7321 74.6417C75.2956 74.2924 75.5986 73.6466 75.6904 73.1823C76.3428 69.8819 76.3083 66.622 76.1595 63.2587C76.0088 59.8535 76.0657 56.4407 76.0657 53.0328C76.0657 51.1485 75.6904 49.32 75.6904 47.4456C75.6904 45.3104 75.7359 43.1815 75.5028 41.0557C75.3081 39.2811 74.8406 37.4241 74.7522 35.6561C74.6909 34.4296 74.1893 33.3656 74.1893 32.0911" stroke="#1C7D52" stroke-width="5" stroke-linejoin="round"/>
<path d="M32.5352 74.1204C32.5352 71.3393 32.5452 68.5614 32.4518 65.7813C32.2927 61.0471 32.4038 56.1048 31.743 51.3962C31.6682 50.8632 31.5325 50.4318 31.6387 49.8743C31.8201 48.9222 32.1603 49.2123 33.0564 49.1238C37.1629 48.7182 41.3145 48.6026 45.44 48.6026C46.661 48.6026 47.8469 48.4474 49.0467 48.415C49.5364 48.4017 50.1589 48.3181 50.6416 48.4254C52.2157 48.7752 52.012 49.8204 52.0592 51.1669C52.1889 54.8621 52.2595 58.6841 52.7055 62.3518C53.3154 67.3659 53.1746 82.5489 53.1746 77.4978" stroke="#1C7D52" stroke-width="5" stroke-linejoin="round"/>
</svg>
